HIERARCHY
ROOT hip
{
  OFFSET 0 0 0
  CHANNELS 6 Xposition Yposition Zposition Zrotation Yrotation Xrotation
  JOINT abdomen
  {
    OFFSET 0 20.6881 -0.73152
    CHANNELS 3 Zrotation Xrotation Yrotation
    JOINT chest
    {
      OFFSET 0 11.7043 -0.48768
      CHANNELS 3 Zrotation Xrotation Yrotation
      JOINT neck
      {
        OFFSET 0 22.1894 -2.19456
        CHANNELS 3 Zrotation Xrotation Yrotation
        JOINT head
        {
          OFFSET -0.24384 7.07133 1.2192
          CHANNELS 3 Zrotation Xrotation Yrotation
          JOINT leftEye
          {
            OFFSET 4.14528 8.04674 8.04672
            CHANNELS 3 Zrotation Xrotation Yrotation
            End Site
            {
              OFFSET 1 0 0
            }
          }
          JOINT rightEye
          {
            OFFSET -3.6576 8.04674 8.04672
            CHANNELS 3 Zrotation Xrotation Yrotation
            End Site
            {
              OFFSET 1 0 0
            }
          }
        }
      }
      JOINT rCollar
      {
        OFFSET -2.68224 19.2634 -4.8768
        CHANNELS 3 Zrotation Xrotation Yrotation
        JOINT rShldr
        {
          OFFSET -8.77824 -1.95073 1.46304
          CHANNELS 3 Zrotation Xrotation Yrotation
          JOINT rForeArm
          {
            OFFSET -28.1742 -1.7115 0.48768
            CHANNELS 3 Zrotation Xrotation Yrotation
            JOINT rHand
            {
              OFFSET -22.5879 0.773209 7.07136
              CHANNELS 3 Zrotation Xrotation Yrotation
              JOINT rThumb1
              {
                OFFSET -1.2192 -0.487915 3.41376
                CHANNELS 3 Zrotation Xrotation Yrotation
                JOINT rThumb2
                {
                  OFFSET -3.37035 -0.52449 3.41376
                  CHANNELS 3 Zrotation Xrotation Yrotation
                  End Site
                  {
                    OFFSET -1.78271 -1.18214 1.43049
                  }
                }
              }
              JOINT rIndex1
              {
                OFFSET -7.75947 0.938293 5.60832
                CHANNELS 3 Zrotation Xrotation Yrotation
                JOINT rIndex2
                {
                  OFFSET -2.54057 -0.884171 1.56538
                  CHANNELS 3 Zrotation Xrotation Yrotation
                  End Site
                  {
                    OFFSET -1.62519 -0.234802 1.16502
                  }
                }
              }
              JOINT rMid1
              {
                OFFSET -8.24714 1.18213 3.41376
                CHANNELS 3 Zrotation Xrotation Yrotation
                JOINT rMid2
                {
                  OFFSET -3.10165 -0.590103 1.0647
                  CHANNELS 3 Zrotation Xrotation Yrotation
                  End Site
                  {
                    OFFSET -2.48547 -0.328903 0.83742
                  }
                }
              }
              JOINT rRing1
              {
                OFFSET -8.82822 0.546677 1.51678
                CHANNELS 3 Zrotation Xrotation Yrotation
                JOINT rRing2
                {
                  OFFSET -2.60934 -0.819778 -0.0198488
                  CHANNELS 3 Zrotation Xrotation Yrotation
                  End Site
                  {
                    OFFSET -2.33842 -0.294052 0.168128
                  }
                }
              }
              JOINT rPinky1
              {
                OFFSET -8.27202 -0.0477905 -0.4584
                CHANNELS 3 Zrotation Xrotation Yrotation
                JOINT rPinky2
                {
                  OFFSET -1.82734 -0.647385 -0.700984
                  CHANNELS 3 Zrotation Xrotation Yrotation
                  End Site
                  {
                    OFFSET -1.69225 -0.51767 -0.607171
                  }
                }
              }
            }
          }
        }
      }
      JOINT lCollar
      {
        OFFSET 2.68224 19.2634 -4.8768
        CHANNELS 3 Zrotation Xrotation Yrotation
        JOINT lShldr
        {
          OFFSET 8.77824 -1.95073 1.46304
          CHANNELS 3 Zrotation Xrotation Yrotation
          JOINT lForeArm
          {
            OFFSET 28.1742 -1.7115 0.48768
            CHANNELS 3 Zrotation Xrotation Yrotation
            JOINT lHand
            {
              OFFSET 22.5879 0.773209 7.07136
              CHANNELS 3 Zrotation Xrotation Yrotation
              JOINT lThumb1
              {
                OFFSET 1.2192 -0.487915 3.41376
                CHANNELS 3 Zrotation Xrotation Yrotation
                JOINT lThumb2
                {
                  OFFSET 3.37035 -0.52449 3.41376
                  CHANNELS 3 Zrotation Xrotation Yrotation
                  End Site
                  {
                    OFFSET 1.78271 -1.18214 1.43049
                  }
                }
              }
              JOINT lIndex1
              {
                OFFSET 7.75947 0.938293 5.60832
                CHANNELS 3 Zrotation Xrotation Yrotation
                JOINT lIndex2
                {
                  OFFSET 2.54057 -0.884171 1.56538
                  CHANNELS 3 Zrotation Xrotation Yrotation
                  End Site
                  {
                    OFFSET 1.62519 -0.234802 1.16502
                  }
                }
              }
              JOINT lMid1
              {
                OFFSET 8.24714 1.18213 3.41376
                CHANNELS 3 Zrotation Xrotation Yrotation
                JOINT lMid2
                {
                  OFFSET 3.10165 -0.590103 1.0647
                  CHANNELS 3 Zrotation Xrotation Yrotation
                  End Site
                  {
                    OFFSET 2.48547 -0.328903 0.83742
                  }
                }
              }
              JOINT lRing1
              {
                OFFSET 8.82822 0.546677 1.51678
                CHANNELS 3 Zrotation Xrotation Yrotation
                JOINT lRing2
                {
                  OFFSET 2.60934 -0.819778 -0.0198488
                  CHANNELS 3 Zrotation Xrotation Yrotation
                  End Site
                  {
                    OFFSET 2.33842 -0.294052 0.168128
                  }
                }
              }
              JOINT lPinky1
              {
                OFFSET 8.27202 -0.0477905 -0.4584
                CHANNELS 3 Zrotation Xrotation Yrotation
                JOINT lPinky2
                {
                  OFFSET 1.82734 -0.647385 -0.700984
                  CHANNELS 3 Zrotation Xrotation Yrotation
                  End Site
                  {
                    OFFSET 1.69225 -0.51767 -0.607171
                  }
                }
              }
            }
          }
        }
      }
    }
  }
  JOINT rButtock
  {
    OFFSET -8.77824 4.35084 1.2192
    CHANNELS 3 Zrotation Xrotation Yrotation
    JOINT rThigh
    {
      OFFSET 0 -1.70687 -2.19456
      CHANNELS 3 Zrotation Xrotation Yrotation
      JOINT rShin
      {
        OFFSET 0 -36.8199 0.73152
        CHANNELS 3 Zrotation Xrotation Yrotation
        JOINT rFoot
        {
          OFFSET 0.73152 -45.1104 -5.12064
          CHANNELS 3 Zrotation Xrotation Yrotation
          End Site
          {
            OFFSET -1.1221 -3.69964 12.103
          }
        }
      }
    }
  }
  JOINT lButtock
  {
    OFFSET 8.77824 4.35084 1.2192
    CHANNELS 3 Zrotation Xrotation Yrotation
    JOINT lThigh
    {
      OFFSET 0 -1.70687 -2.19456
      CHANNELS 3 Zrotation Xrotation Yrotation
      JOINT lShin
      {
        OFFSET 0 -36.8199 0.73152
        CHANNELS 3 Zrotation Xrotation Yrotation
        JOINT lFoot
        {
          OFFSET -0.73152 -45.1104 -5.12064
          CHANNELS 3 Zrotation Xrotation Yrotation
          End Site
          {
            OFFSET 1.1221 -3.69964 12.103
          }
        }
      }
    }
  }
}
MOTION
Frames:	4
Frame Time:	0.00833333
-8.68741 83.5223 44.0283 -5.2478 8.441 -7.5732 -12.4274 0.742415 10.8875 -8.2126 -8.01845 2.20482 -12.0696 -0.196437 -14.5044 15.1963 -21.5516 -22.873 -0.0 0.0 0.0 -0.0 0.0 0.0 -2.62567e-13 2.65677e-13 -1.25591e-13 37.4211 -64.6427 41.4022 -28.1266 -31.3459 64.0241 -0.940585 -27.4472 -4.14268 -7.09698e-10 7.54605e-09 -6.19029e-09 -1.12176e-09 1.2952e-08 -1.06974e-08 -7.0969e-10 7.54602e-09 -6.1903e-09 7.73091 5.47488 0.417314 -7.09693e-10 7.54604e-09 -6.19028e-09 2.90554 0.965183 0.102902 -7.09688e-10 7.54604e-09 -6.19029e-09 10.2786 0.731801 0.0259123 -7.09703e-10 7.54604e-09 -6.19028e-09 2.22167 -0.733487 -0.20892 -2.62553e-13 2.65675e-13 -1.25855e-13 -51.2415 43.1227 16.1855 27.9927 -30.2782 -67.2739 1.22544 -29.7544 4.60829 -1.14842e-10 4.55581e-09 -1.97903e-09 -1.48181e-10 8.02765e-09 -3.42599e-09 -1.14848e-10 4.55582e-09 -1.97902e-09 -7.73091 5.47488 -0.417314 -1.1484e-10 4.55582e-09 -1.97903e-09 -2.90554 0.965183 -0.102902 -1.14844e-10 4.55582e-09 -1.97903e-09 -10.2786 0.731801 -0.0259123 -1.14836e-10 4.55582e-09 -1.97904e-09 -2.22167 -0.733487 0.20892 -2.03217e-16 0.0 -3.88251e-19 2.49989 22.1149 -5.4425 0.00458557 -6.0865 -0.0947566 -5.99316 -17.3626 -16.7145 2.03217e-16 0.0 3.88251e-19 9.09876 5.18923 -10.3849 -0.113085 15.3054 -0.808887 -0.96444 -11.3123 13.1643
-8.75195 83.5331 43.6966 -5.2308 9.1609 -7.1644 -13.3247 0.61704 12.351 -8.58592 -7.80007 2.6181 -12.7984 0.526043 -15.5155 14.8944 -22.6756 -24.7707 -0.0 0.0 0.0 -0.0 0.0 0.0 -1.53507e-13 1.42744e-13 -1.77086e-13 24.0393 -58.2753 32.2969 -26.9015 -26.3074 51.687 -1.43815 -33.152 -5.19495 -9.72364e-11 5.16175e-09 -4.04125e-09 -1.02442e-10 8.86198e-09 -6.96991e-09 -9.72294e-11 5.16173e-09 -4.04126e-09 7.73091 5.47488 0.417314 -9.72293e-11 5.16175e-09 -4.04124e-09 2.90554 0.965183 0.102902 -9.72261e-11 5.16174e-09 -4.04124e-09 10.2786 0.731801 0.0259123 -9.72415e-11 5.16174e-09 -4.04123e-09 2.22167 -0.733487 -0.20892 -1.53529e-13 1.42711e-13 -1.7739e-13 -54.6959 42.5122 19.9427 28.2947 -32.039 -69.862 1.33066 -30.8665 4.81822 -2.25847e-10 2.87401e-09 -1.36425e-09 -3.55407e-10 5.08344e-09 -2.36637e-09 -2.25852e-10 2.87402e-09 -1.36424e-09 -7.73091 5.47488 -0.417314 -2.25845e-10 2.87402e-09 -1.36425e-09 -2.90554 0.965183 -0.102902 -2.2585e-10 2.87401e-09 -1.36425e-09 -10.2786 0.731801 -0.0259123 -2.2584e-10 2.87402e-09 -1.36426e-09 -2.22167 -0.733487 0.20892 -2.03217e-16 0.0 -3.88251e-19 2.48938 20.7277 -6.20943 0.0104291 -4.72769 -0.0189859 -5.84782 -17.6942 -15.3284 2.03217e-16 0.0 3.88251e-19 9.02615 4.47265 -10.907 -0.111935 14.9908 -0.795234 -1.01209 -10.8267 13.3488
-8.7836 83.6414 43.3565 -5.1415 10.0528 -6.428 -14.0394 0.346421 13.4947 -8.64987 -7.53319 2.97106 -13.2685 1.22849 -16.2757 14.2334 -23.8836 -26.3397 -0.0 0.0 0.0 -0.0 0.0 0.0 -3.05031e-14 4.10603e-15 -2.07141e-13 13.7765 -51.032 25.8882 -23.1526 -18.4521 41.1474 -2.23648 -39.0747 -6.49961 5.34163e-10 2.38034e-09 -1.74182e-09 9.49257e-10 4.09261e-09 -2.98238e-09 5.3417e-10 2.38033e-09 -1.74183e-09 7.73091 5.47488 0.417314 5.34172e-10 2.38035e-09 -1.7418e-09 2.90554 0.965183 0.102902 5.34174e-10 2.38033e-09 -1.74181e-09 10.2786 0.731801 0.0259123 5.34158e-10 2.38033e-09 -1.7418e-09 2.22167 -0.733487 -0.20892 -3.05662e-14 4.0445e-15 -2.07482e-13 -58.9643 41.4402 24.6967 28.4226 -33.59 -72.5836 1.41822 -31.743 4.98744 -4.07717e-10 9.66571e-10 -7.07668e-10 -6.8631e-10 1.74497e-09 -1.23564e-09 -4.0772e-10 9.66581e-10 -7.07659e-10 -7.73091 5.47488 -0.417314 -4.07716e-10 9.6658e-10 -7.07673e-10 -2.90554 0.965183 -0.102902 -4.07722e-10 9.6657e-10 -7.07673e-10 -10.2786 0.731801 -0.0259123 -4.07708e-10 9.66572e-10 -7.07682e-10 -2.22167 -0.733487 0.20892 -2.03217e-16 0.0 -3.88251e-19 2.51308 19.0684 -7.06881 0.0119328 -3.1423 0.0519186 -5.59584 -18.0472 -13.9472 2.03217e-16 0.0 3.88251e-19 9.02666 3.55093 -11.3412 -0.11115 14.786 -0.784489 -1.07231 -10.3984 13.494
-8.83458 83.7531 43.0049 -5.1294 11.1297 -5.5604 -14.782 0.178066 14.513 -8.67248 -7.27239 3.29016 -13.6245 2.00192 -16.9812 13.7099 -24.9847 -27.8377 -0.0 0.0 0.0 -0.0 0.0 0.0 6.04755e-14 -1.04922e-13 -1.84273e-13 8.39079 -44.5065 23.263 -18.4232 -11.1489 34.9765 -3.10369 -43.7257 -7.72533 9.0714e-10 2.82774e-10 -4.38923e-10 1.57709e-09 5.04446e-10 -7.22491e-10 9.07146e-10 2.8277e-10 -4.38929e-10 7.73091 5.47488 0.417314 9.0715e-10 2.82786e-10 -4.38901e-10 2.90554 0.965183 0.102902 9.07151e-10 2.82768e-10 -4.38917e-10 10.2786 0.731801 0.0259123 9.07136e-10 2.82767e-10 -4.38907e-10 2.22167 -0.733487 -0.20892 6.03899e-14 -1.04994e-13 -1.84621e-13 -62.6739 40.1785 28.9036 28.4135 -34.6042 -74.6919 1.46594 -32.1954 5.0766 -6.70229e-10 -3.25729e-10 -3.38338e-10 -1.14979e-09 -5.14229e-10 -6.02691e-10 -6.70231e-10 -3.25719e-10 -3.38328e-10 -7.73091 5.47488 -0.417314 -6.70228e-10 -3.2572e-10 -3.38344e-10 -2.90554 0.965183 -0.102902 -6.70235e-10 -3.2573e-10 -3.38343e-10 -10.2786 0.731801 -0.0259123 -6.7022e-10 -3.25728e-10 -3.38354e-10 -2.22167 -0.733487 0.20892 -2.03217e-16 0.0 -3.88251e-19 2.64458 17.7346 -8.1224 0.0101128 -2.08132 0.0947771 -5.3804 -18.2955 -12.8827 2.03217e-16 0.0 3.88251e-19 9.06658 2.52517 -11.8869 -0.110019 14.6448 -0.773115 -1.12139 -10.0111 13.4665
